# xmcd
#
# Track frame offsets:
#       150
#       17323
#       33298
#       57355
#       81362
#       103581
#       123383
#       134465
#       152548
#       176102
#
# Disc length: 2565 seconds
#
# Revision: 0
# Processed by: cddbd v1.5.2PL0 Copyright (c) Steve Scherf et al.
# Submitted via: WaveLab 6.11
#
DISCID=790a030a
DTITLE=Low Society - High Time
DYEAR=2011
DGENRE=Roots Blues
TTITLE0=Given Up On Love
TTITLE1=Dead Mans Shoes
TTITLE2=Three Time Loser
TTITLE3=Long Black Limousine
TTITLE4=Texas Goodnight
TTITLE5=When I'm Done
TTITLE6=Crazy Love
TTITLE7=Down Texas Way
TTITLE8=Black Pelican
TTITLE9=Sugar Coated Love
EXTD=
EXTT0=
EXTT1=
EXTT2=
EXTT3=
EXTT4=
EXTT5=
EXTT6=
EXTT7=
EXTT8=
EXTT9=
PLAYORDER=
